<?xml version="1.0" encoding="UTF-8"?><svg id="Capa_1" xmlns="http://www.w3.org/2000/svg" viewBox="0 0 841.89 595.276"><defs><style>.cls-1{fill:#ff8300;}</style></defs><path class="cls-1" d="m221.398,301.334h-33.568c1.89,25.501,23.177,45.602,49.161,45.602s47.271-20.101,49.161-45.602h-33.568c-1.669,7.067-8.018,12.324-15.593,12.324s-13.924-5.257-15.593-12.324m-13.758-7.394c1.821-14.591,14.266-25.881,29.351-25.881s27.529,11.29,29.351,25.881h6.202c-1.85-18.001-17.061-32.043-35.553-32.043s-33.703,14.042-35.553,32.043h6.202Zm7.472,0h6.286c1.669-7.067,8.018-12.324,15.593-12.324s13.924,5.257,15.593,12.324h6.283c-1.758-10.491-10.882-18.486-21.876-18.486s-20.118,7.995-21.879,18.486m64.858,0h6.182c-1.89-25.498-23.177-45.599-49.161-45.599s-47.271,20.101-49.161,45.599h6.182c1.876-22.091,20.402-39.437,42.979-39.437s41.103,17.346,42.979,39.437"/><path d="m329.852,297.636c0-16.854,13.663-30.517,30.517-30.517,10.954,0,20.557,5.771,25.941,14.436l9.974-9.974c-8.064-11.097-21.146-18.311-35.915-18.311-24.504,0-44.367,19.862-44.367,44.367s19.862,44.367,44.367,44.367c14.769,0,27.851-7.213,35.915-18.311l-9.974-9.974c-5.384,8.667-14.987,14.436-25.941,14.436-16.854,0-30.517-13.663-30.517-30.517m127.515,9.132h-29.54l14.708-34.318,14.832,34.318Zm14.088,33.763h15.926l-37.481-85.791h-14.24l-37.481,85.791h15.438l8.693-20.405h40.569l8.575,20.405Zm88.067-56.498c0,8.946-7.11,15.317-18.509,15.317h-30.098v-30.885h30.098c11.276,0,18.509,5.271,18.509,15.567m15.317-.615c0-17.28-12.623-28.679-32.6-28.679h-46.4v85.791h15.076v-27.575h29.609c18.874,0,34.315-10.052,34.315-29.538m9.718,57.113h69.503v-13.482h-54.43v-22.672h49.483v-13.482h-49.483v-22.675h53.815v-13.482h-68.888v85.791Zm84.846-6.92h-2.591v-2.7h2.591c.842,0,1.373.353,1.373,1.35s-.689,1.35-1.373,1.35m3.054,4.605l-1.882-3.278c1.109-.396,1.839-1.416,1.839-2.677,0-1.749-1.175-2.878-3.034-2.878h-4.229v8.814h1.66v-3.057h2.146l1.594,3.077h1.905Zm2.37-4.229c0,3.611-2.879,6.533-6.421,6.533s-6.423-2.922-6.423-6.533c0-3.588,2.878-6.51,6.423-6.51s6.421,2.922,6.421,6.51m1.594,0c0-4.407-3.588-7.995-8.015-7.995s-8.018,3.588-8.018,7.995c0,4.43,3.588,8.015,8.018,8.015s8.015-3.585,8.015-8.015"/></svg>